<svg width="150" height="150" viewBox="0 0 150 150" fill="none" xmlns="http://www.w3.org/2000/svg">
<g clip-path="url(#clip0)">
<path d="M117.432 121.017C139.951 97.5179 139.157 60.2136 115.658 37.6948C92.1592 15.1761 54.8549 15.9706 32.3361 39.469C10.4926 62.2634 10.4926 98.2223 32.3361 121.017L17.0247 141.428C15.2496 143.795 15.7292 147.153 18.0961 148.928C20.4629 150.703 23.8211 150.224 25.5963 147.857L40.4362 128.067C60.9657 143.025 88.8023 143.025 109.331 128.067L124.171 147.857C125.947 150.224 129.305 150.704 131.672 148.928C134.039 147.153 134.518 143.795 132.743 141.428L117.432 121.017ZM80.2418 80.3545C80.2418 81.5137 79.8657 82.6416 79.1704 83.5689L63.0984 104.998C61.3232 107.365 57.9651 107.845 55.5982 106.07C53.2313 104.294 52.7514 100.936 54.5268 98.5695L69.5275 78.5705V48.2104C69.5275 45.2515 71.9261 42.853 74.8849 42.853C77.8438 42.853 80.2424 45.2515 80.2424 48.2104V80.3545H80.2418Z" fill="#416C6C"/>
<path d="M45.6062 7.84261C35.0144 -2.48555 18.0556 -2.27178 7.72709 8.32006C-2.41649 18.7226 -2.41774 35.3151 7.72458 45.7192C9.81677 47.8108 13.2079 47.8108 15.2998 45.7192L45.6062 15.4181C47.6978 13.3259 47.6978 9.93479 45.6062 7.84261Z" fill="#416C6C"/>
<path d="M142.038 7.84264C131.578 -2.61454 114.622 -2.61454 104.162 7.84264C102.071 9.93482 102.071 13.326 104.162 15.4178L134.463 45.7189C136.555 47.8105 139.946 47.8105 142.038 45.7189C152.496 35.2589 152.496 18.3029 142.038 7.84264Z" fill="#416C6C"/>
</g>
<defs>
<clipPath id="clip0">
<rect width="150" height="150" fill="white"/>
</clipPath>
</defs>
</svg>
