<svg width="150" height="150" viewBox="0 0 150 150" fill="none" xmlns="http://www.w3.org/2000/svg">
<g clip-path="url(#clip0)">
<path d="M78.7389 74.068C78.7389 73.1554 78.4286 70.6444 75.951 70.6444H70.8149V77.443H75.951C78.4028 77.443 78.7389 74.9815 78.7389 74.068Z" fill="#416C6C"/>
<path d="M39.1693 86.3449H46.3105L42.7398 73.2363L39.1693 86.3449Z" fill="#416C6C"/>
<path d="M75.7064 83.3127H70.8149V93.0952H75.7064C78.3147 93.0952 79.6192 91.5958 79.6192 88.5952V87.8127C79.6192 84.8127 78.3147 83.3127 75.7064 83.3127Z" fill="#416C6C"/>
<path d="M32.4996 24.3053H122.029C124.68 24.3053 126.829 22.1564 126.829 19.5059V4.79941C126.829 2.14893 124.68 0 122.03 0H32.4996C27.191 0 22.8873 4.30371 22.8873 9.61231V14.693C22.8873 20.0019 27.191 24.3053 32.4996 24.3053Z" fill="#416C6C"/>
<path d="M32.4996 33.0733C26.8983 33.0733 21.8774 30.5517 18.5033 26.5872V143.74C18.5033 147.197 21.3059 150 24.7632 150H125.237C128.694 150 131.497 147.197 131.497 143.74V33.0733H32.4996ZM55.3837 98.8178C54.3234 99.4377 53.2231 99.7474 52.0822 99.7474C50.6798 99.7474 49.8483 99.2751 49.5876 98.3291L47.9247 92.2151H37.604L35.9411 98.3291C35.6798 99.2754 34.8481 99.7474 33.4465 99.7474C32.3048 99.7474 31.2041 99.4377 30.145 98.8178C29.0851 98.1987 28.3515 97.0899 28.6532 96.0788L37.7508 66.2423C38.5875 63.8689 41.533 63.6987 42.7397 63.6987C43.9459 63.6987 46.8662 63.9797 47.729 66.2423L56.8755 96.0788C57.2572 97.2656 56.4428 98.1987 55.3837 98.8178ZM87.2496 89.231C87.2496 92.8831 86.3607 95.5491 84.5839 97.2281C82.8065 98.9077 80.4179 99.7471 77.4182 99.7471H66.5596C63.9592 99.7471 63.2338 98.0681 63.2338 97.4481V66.3401C63.2338 65.5901 63.7913 63.9923 66.5596 63.9923H76.5867C83.1082 63.9923 86.3692 66.895 86.3692 72.6987C86.3692 76.6116 84.9829 79.1719 82.2117 80.3777C83.8746 80.9977 85.1297 81.8865 85.9778 83.0435C86.8254 84.2016 87.2496 85.9219 87.2496 88.2038V89.231ZM106.325 93.3885C109.582 93.3885 110.416 90.5145 110.629 88.4971C110.759 86.9649 112.015 86.1981 114.396 86.1981C117.444 86.1981 118.26 87.561 118.26 89.8178C118.26 92.981 117.11 95.4753 114.812 97.3011C112.513 99.1277 109.569 100.04 105.983 100.04C102.493 100.04 99.6648 99.1107 97.4968 97.2522C95.3276 95.3936 94.244 92.4756 94.244 88.4968V75.535C94.244 71.557 95.3276 68.6385 97.4968 66.7796C99.665 64.921 102.494 63.9917 105.983 63.9917C109.569 63.9917 112.513 64.8563 114.812 66.5842C117.11 68.3127 118.26 70.6928 118.26 73.7253C118.26 76.0617 117.224 77.3449 114.445 77.3449C111.999 77.3449 110.727 76.5788 110.629 75.046C110.532 72.111 109.08 70.6439 106.276 70.6439C103.342 70.6439 101.874 72.2745 101.874 75.535V88.4968C101.874 91.7584 103.357 93.3885 106.325 93.3885Z" fill="#416C6C"/>
</g>
<defs>
<clipPath id="clip0">
<rect width="150" height="150" fill="white"/>
</clipPath>
</defs>
</svg>
