<svg width="150" height="150" viewBox="0 0 150 150" fill="none" xmlns="http://www.w3.org/2000/svg">
<g clip-path="url(#clip0)">
<path d="M17.1875 0C7.69375 0 0 7.69375 0 17.1875V71.875H71.875V0H17.1875ZM45.3125 42.1875H39.0625V48.4375C39.0625 51.025 36.9625 53.125 34.375 53.125C31.7875 53.125 29.6875 51.025 29.6875 48.4375V42.1875H23.4375C20.85 42.1875 18.75 40.0875 18.75 37.5C18.75 34.9125 20.85 32.8125 23.4375 32.8125H29.6875V26.5625C29.6875 23.975 31.7875 21.875 34.375 21.875C36.9625 21.875 39.0625 23.975 39.0625 26.5625V32.8125H45.3125C47.9 32.8125 50 34.9125 50 37.5C50 40.0875 47.9 42.1875 45.3125 42.1875Z" fill="#416C6C"/>
<path d="M0 78.125V132.812C0 142.306 7.69375 150 17.1875 150H71.875V78.125H0ZM47.0625 118.562C48.8938 120.394 48.8938 123.362 47.0625 125.194C46.15 126.106 44.95 126.562 43.75 126.562C42.55 126.562 41.35 126.106 40.4375 125.188L35.9375 120.687L31.4375 125.188C30.525 126.1 29.325 126.562 28.125 126.562C26.925 126.562 25.725 126.106 24.8125 125.188C22.9813 123.356 22.9813 120.388 24.8125 118.556L29.3125 114.056L24.8125 109.556C22.9813 107.725 22.9813 104.756 24.8125 102.925C26.6438 101.094 29.6125 101.094 31.4438 102.925L35.9437 107.425L40.4438 102.925C42.275 101.094 45.2438 101.094 47.075 102.925C48.9062 104.756 48.9062 107.725 47.075 109.556L42.575 114.056L47.0625 118.562Z" fill="#416C6C"/>
<path d="M132.812 0H78.125V71.875H150V17.1875C150 7.69375 142.306 0 132.812 0ZM129.688 40.625H101.562C98.975 40.625 96.875 38.525 96.875 35.9375C96.875 33.35 98.975 31.25 101.562 31.25H129.688C132.275 31.25 134.375 33.35 134.375 35.9375C134.375 38.525 132.275 40.625 129.688 40.625Z" fill="#416C6C"/>
<path d="M78.125 78.125V150H132.812C142.306 150 150 142.306 150 132.812V78.125H78.125ZM128.125 128.125H100C97.4125 128.125 95.3125 126.025 95.3125 123.438C95.3125 120.85 97.4125 118.75 100 118.75H128.125C130.713 118.75 132.812 120.85 132.812 123.438C132.812 126.025 130.713 128.125 128.125 128.125ZM128.125 109.375H100C97.4125 109.375 95.3125 107.275 95.3125 104.688C95.3125 102.1 97.4125 100 100 100H128.125C130.713 100 132.812 102.1 132.812 104.688C132.812 107.275 130.713 109.375 128.125 109.375Z" fill="#416C6C"/>
</g>
<defs>
<clipPath id="clip0">
<rect width="150" height="150" fill="white"/>
</clipPath>
</defs>
</svg>
