<svg width="150" height="150" viewBox="0 0 150 150" fill="none" xmlns="http://www.w3.org/2000/svg">
<g clip-path="url(#clip0)">
<path d="M70.3125 4.3919V31.3477C70.3125 37.1563 79.1016 37.1801 79.1016 31.3477V4.3919C79.1016 -1.52636 70.3125 -1.40156 70.3125 4.3919Z" fill="#416C6C"/>
<path d="M26.3672 4.3919C26.3672 21.2915 26.3672 14.4481 26.3672 31.3477C26.3672 37.2659 35.1562 37.1411 35.1562 31.3477C35.1562 14.4481 35.1562 21.2915 35.1562 4.3919C35.1562 -1.52636 26.3672 -1.40156 26.3672 4.3919Z" fill="#416C6C"/>
<path d="M114.844 4.3919V31.3477C114.844 37.1563 123.633 37.1801 123.633 31.3477V4.3919C123.633 -1.52636 114.844 -1.40156 114.844 4.3919Z" fill="#416C6C"/>
<path d="M70.3125 106.055H52.7344V123.633H70.3125V106.055Z" fill="#416C6C"/>
<path d="M43.9453 106.055H26.3672V123.633H43.9453V106.055Z" fill="#416C6C"/>
<path d="M97.2656 106.055H79.1016V123.633H97.2656V106.055Z" fill="#416C6C"/>
<path d="M43.9453 79.6875H26.3672V97.2656H43.9453V79.6875Z" fill="#416C6C"/>
<path d="M70.3125 79.6875H52.7344V97.2656H70.3125V79.6875Z" fill="#416C6C"/>
<path d="M0 62.1094V136.816C0 144.111 5.88838 150 13.1836 150H136.816C144.112 150 150 144.111 150 136.816V62.1094H0ZM132.422 128.027C132.422 130.456 130.456 132.422 128.027 132.422H21.9727C19.5437 132.422 17.5781 130.456 17.5781 128.027V75.293C17.5781 72.864 19.5437 70.8984 21.9727 70.8984H128.027C130.456 70.8984 132.422 72.864 132.422 75.293V128.027Z" fill="#416C6C"/>
<path d="M123.633 79.6875H106.055V97.2656H123.633V79.6875Z" fill="#416C6C"/>
<path d="M97.2656 79.6875H79.1016V97.2656H97.2656V79.6875Z" fill="#416C6C"/>
<path d="M123.633 106.055H106.055V123.633H123.633V106.055Z" fill="#416C6C"/>
<path d="M136.816 18.1641H132.422V26.9531V31.3477C132.422 35.2315 130.881 38.7334 128.083 41.2096C125.68 43.3339 122.543 44.5011 119.242 44.5011C111.848 44.5011 106.055 38.7249 106.055 31.3477V26.9531V18.1641H87.8906V26.9531V31.3477C87.8906 35.2315 86.3499 38.7334 83.5518 41.2096C81.1485 43.3339 78.0114 44.5011 74.7111 44.5011C67.3169 44.5011 61.5234 38.7249 61.5234 31.3477V26.9531V18.1641H43.9453V26.9531V31.3477C43.9453 35.2356 42.3961 38.7419 39.5851 41.2225C37.1733 43.3553 34.0274 44.5269 30.7274 44.5269C23.3546 44.5269 17.5781 38.7378 17.5781 31.3477V26.9531V18.1641H13.1836C5.88838 18.1641 0 24.0527 0 31.3477V53.3203H8.78906H30.7617H74.707H119.238H132.422H150V31.3477C150 24.0527 144.112 18.1641 136.816 18.1641Z" fill="#416C6C"/>
</g>
<defs>
<clipPath id="clip0">
<rect width="150" height="150" fill="white"/>
</clipPath>
</defs>
</svg>
