<svg width="25" height="25" viewBox="0 0 25 25" fill="none" xmlns="http://www.w3.org/2000/svg">
<path d="M12.5 15.625C14.2259 15.625 15.625 14.2259 15.625 12.5C15.625 10.7741 14.2259 9.375 12.5 9.375C10.7741 9.375 9.375 10.7741 9.375 12.5C9.375 14.2259 10.7741 15.625 12.5 15.625Z" stroke="black" stroke-width="2" stroke-linecap="round" stroke-linejoin="round"/>
<path d="M20.2084 15.625C20.0697 15.9392 20.0283 16.2877 20.0896 16.6256C20.1509 16.9635 20.312 17.2754 20.5521 17.5209L20.6146 17.5834C20.8083 17.7768 20.962 18.0066 21.0668 18.2595C21.1717 18.5124 21.2256 18.7835 21.2256 19.0573C21.2256 19.3311 21.1717 19.6022 21.0668 19.8551C20.962 20.108 20.8083 20.3378 20.6146 20.5313C20.4211 20.725 20.1913 20.8786 19.9384 20.9835C19.6855 21.0883 19.4144 21.1423 19.1406 21.1423C18.8669 21.1423 18.5958 21.0883 18.3429 20.9835C18.0899 20.8786 17.8602 20.725 17.6667 20.5313L17.6042 20.4688C17.3587 20.2286 17.0469 20.0675 16.709 20.0063C16.3711 19.945 16.0225 19.9864 15.7084 20.125C15.4003 20.2571 15.1375 20.4763 14.9524 20.7558C14.7673 21.0353 14.668 21.3627 14.6667 21.6979V21.875C14.6667 22.4276 14.4472 22.9575 14.0565 23.3482C13.6658 23.7389 13.1359 23.9584 12.5834 23.9584C12.0308 23.9584 11.5009 23.7389 11.1102 23.3482C10.7195 22.9575 10.5 22.4276 10.5 21.875V21.7813C10.492 21.4365 10.3804 21.1021 10.1797 20.8216C9.97909 20.5411 9.6987 20.3274 9.37502 20.2084C9.06084 20.0697 8.71232 20.0283 8.37441 20.0896C8.0365 20.1509 7.72469 20.312 7.47919 20.5521L7.41669 20.6146C7.2232 20.8083 6.99343 20.962 6.74052 21.0668C6.48761 21.1717 6.21651 21.2256 5.94273 21.2256C5.66895 21.2256 5.39785 21.1717 5.14494 21.0668C4.89202 20.962 4.66226 20.8083 4.46877 20.6146C4.27507 20.4211 4.1214 20.1913 4.01656 19.9384C3.91172 19.6855 3.85776 19.4144 3.85776 19.1406C3.85776 18.8669 3.91172 18.5958 4.01656 18.3429C4.1214 18.0899 4.27507 17.8602 4.46877 17.6667L4.53127 17.6042C4.77141 17.3587 4.93251 17.0469 4.99377 16.709C5.05504 16.3711 5.01368 16.0225 4.87502 15.7084C4.74298 15.4003 4.52372 15.1375 4.24425 14.9524C3.96479 14.7673 3.6373 14.668 3.3021 14.6667H3.12502C2.57249 14.6667 2.04258 14.4472 1.65188 14.0565C1.26118 13.6658 1.04169 13.1359 1.04169 12.5834C1.04169 12.0308 1.26118 11.5009 1.65188 11.1102C2.04258 10.7195 2.57249 10.5 3.12502 10.5H3.21877C3.56356 10.492 3.89794 10.3804 4.17846 10.1797C4.45897 9.97909 4.67264 9.6987 4.79169 9.37502C4.93035 9.06084 4.97171 8.71232 4.91044 8.37441C4.84917 8.0365 4.68808 7.72469 4.44794 7.47919L4.38544 7.41669C4.19174 7.2232 4.03807 6.99343 3.93323 6.74052C3.82839 6.48761 3.77442 6.21651 3.77442 5.94273C3.77442 5.66895 3.82839 5.39785 3.93323 5.14494C4.03807 4.89202 4.19174 4.66226 4.38544 4.46877C4.57892 4.27507 4.80869 4.1214 5.0616 4.01656C5.31452 3.91172 5.58561 3.85776 5.8594 3.85776C6.13318 3.85776 6.40427 3.91172 6.65719 4.01656C6.9101 4.1214 7.13987 4.27507 7.33335 4.46877L7.39585 4.53127C7.64135 4.77141 7.95316 4.93251 8.29107 4.99377C8.62898 5.05504 8.9775 5.01368 9.29169 4.87502H9.37502C9.68311 4.74298 9.94587 4.52372 10.1309 4.24425C10.316 3.96479 10.4153 3.6373 10.4167 3.3021V3.12502C10.4167 2.57249 10.6362 2.04258 11.0269 1.65188C11.4176 1.26118 11.9475 1.04169 12.5 1.04169C13.0526 1.04169 13.5825 1.26118 13.9732 1.65188C14.3639 2.04258 14.5834 2.57249 14.5834 3.12502V3.21877C14.5847 3.55396 14.684 3.88145 14.8691 4.16092C15.0542 4.44039 15.3169 4.65964 15.625 4.79169C15.9392 4.93035 16.2877 4.97171 16.6256 4.91044C16.9635 4.84917 17.2754 4.68808 17.5209 4.44794L17.5834 4.38544C17.7768 4.19174 18.0066 4.03807 18.2595 3.93323C18.5124 3.82839 18.7835 3.77442 19.0573 3.77442C19.3311 3.77442 19.6022 3.82839 19.8551 3.93323C20.108 4.03807 20.3378 4.19174 20.5313 4.38544C20.725 4.57892 20.8786 4.80869 20.9835 5.0616C21.0883 5.31452 21.1423 5.58561 21.1423 5.8594C21.1423 6.13318 21.0883 6.40427 20.9835 6.65719C20.8786 6.9101 20.725 7.13987 20.5313 7.33335L20.4688 7.39585C20.2286 7.64135 20.0675 7.95316 20.0063 8.29107C19.945 8.62898 19.9864 8.9775 20.125 9.29169V9.37502C20.2571 9.68311 20.4763 9.94587 20.7558 10.1309C21.0353 10.316 21.3627 10.4153 21.6979 10.4167H21.875C22.4276 10.4167 22.9575 10.6362 23.3482 11.0269C23.7389 11.4176 23.9584 11.9475 23.9584 12.5C23.9584 13.0526 23.7389 13.5825 23.3482 13.9732C22.9575 14.3639 22.4276 14.5834 21.875 14.5834H21.7813C21.4461 14.5847 21.1186 14.684 20.8391 14.8691C20.5596 15.0542 20.3404 15.3169 20.2084 15.625V15.625Z" stroke="black" stroke-width="2" stroke-linecap="round" stroke-linejoin="round"/>
</svg>
