<svg width="150" height="150" viewBox="0 0 150 150" fill="none" xmlns="http://www.w3.org/2000/svg">
<g clip-path="url(#clip0)">
<path d="M120.437 44.6516L129.419 35.6703L120.581 26.8297L110.973 36.4375C102.196 30.2174 91.9541 26.3839 81.25 25.3125V12.5H93.75V0H56.25V12.5H68.75V25.3125C58.0459 26.3839 47.8036 30.2174 39.0265 36.4375L29.4187 26.8297L20.5812 35.6703L29.5625 44.6516C21.179 53.5278 15.579 64.6652 13.4539 76.6883C11.3289 88.7113 12.7719 101.094 17.6047 112.306C22.4376 123.518 30.4486 133.069 40.6486 139.78C50.8485 146.49 62.7906 150.066 75 150.066C87.2094 150.066 99.1515 146.49 109.351 139.78C119.551 133.069 127.562 123.518 132.395 112.306C137.228 101.094 138.671 88.7113 136.546 76.6883C134.421 64.6652 128.821 53.5278 120.437 44.6516ZM75 137.5C65.1109 137.5 55.4439 134.568 47.2215 129.073C38.999 123.579 32.5904 115.77 28.806 106.634C25.0216 97.4979 24.0315 87.4445 25.9607 77.7455C27.89 68.0464 32.652 59.1373 39.6446 52.1446C46.6373 45.152 55.5464 40.39 65.2455 38.4607C74.9445 36.5315 84.9978 37.5216 94.1342 41.306C103.27 45.0904 111.079 51.499 116.573 59.7215C122.068 67.9439 125 77.6109 125 87.5C124.985 100.756 119.712 113.465 110.339 122.839C100.965 132.212 88.2562 137.485 75 137.5Z" fill="#416C6C"/>
<path d="M75 50V87.5H37.5C37.5 94.9168 39.6993 102.167 43.8199 108.334C47.9404 114.501 53.7971 119.307 60.6494 122.146C67.5016 124.984 75.0416 125.726 82.3159 124.279C89.5902 122.833 96.272 119.261 101.517 114.017C106.761 108.772 110.333 102.09 111.779 94.8159C113.226 87.5416 112.484 80.0016 109.646 73.1494C106.807 66.2972 102.001 60.4405 95.8339 56.3199C89.667 52.1994 82.4168 50 75 50Z" fill="#416C6C"/>
</g>
<defs>
<clipPath id="clip0">
<rect width="150" height="150" fill="white"/>
</clipPath>
</defs>
</svg>
