<svg width="150" height="150" viewBox="0 0 150 150" fill="none" xmlns="http://www.w3.org/2000/svg">
<path d="M132.129 21.2631V136.816C132.129 139.239 130.157 141.211 127.734 141.211H22.2656C19.8429 141.211 17.8711 139.239 17.8711 136.816V21.2631C12.7556 23.0782 9.08203 27.9625 9.08203 33.6914V136.816C9.08203 144.086 14.9963 150 22.2656 150H127.734C135.004 150 140.918 144.086 140.918 136.816V33.6914C140.918 27.9625 137.244 23.0782 132.129 21.2631Z" fill="#416C6C"/>
<path d="M31.0547 132.422H118.945C121.373 132.422 123.34 130.455 123.34 128.027V20.5078H113.086V33.6914C113.086 40.9721 107.183 46.875 99.9023 46.875H50.0977C42.8169 46.875 36.9141 40.9721 36.9141 33.6914V20.5078H26.6602V128.027C26.6602 130.455 28.6274 132.422 31.0547 132.422ZM77.7523 63.1039C79.4678 61.3873 82.251 61.3873 83.9664 63.1039L88.1836 67.3199L98.2601 57.2445C99.9756 55.5279 102.759 55.5279 104.474 57.2445C106.191 58.96 106.191 61.742 104.474 63.4586L91.2907 76.6422C90.4335 77.5005 89.3085 77.9297 88.1836 77.9297C87.0586 77.9297 85.9337 77.5005 85.0765 76.6422L77.7523 69.318C76.0357 67.6025 76.0357 64.8193 77.7523 63.1039ZM77.7523 96.7953C79.4678 95.0787 82.251 95.0787 83.9664 96.7953L88.1836 101.011L98.2601 90.9359C99.9756 89.2193 102.759 89.2193 104.474 90.9359C106.191 92.6514 106.191 95.4334 104.474 97.15L91.2907 110.334C90.4335 111.192 89.3085 111.621 88.1836 111.621C87.0586 111.621 85.9337 111.192 85.0765 110.334L77.7523 103.009C76.0357 101.294 76.0357 98.5107 77.7523 96.7953ZM48.6328 69.1406H62.1094C64.5367 69.1406 66.5039 71.1079 66.5039 73.5352C66.5039 75.9624 64.5367 77.9297 62.1094 77.9297H48.6328C46.2055 77.9297 44.2383 75.9624 44.2383 73.5352C44.2383 71.1079 46.2055 69.1406 48.6328 69.1406ZM48.6328 102.832H62.1094C64.5367 102.832 66.5039 104.799 66.5039 107.227C66.5039 109.654 64.5367 111.621 62.1094 111.621H48.6328C46.2055 111.621 44.2383 109.654 44.2383 107.227C44.2383 104.799 46.2055 102.832 48.6328 102.832Z" fill="#416C6C"/>
<path d="M50.0977 38.0859H99.9023C102.33 38.0859 104.297 36.1187 104.297 33.6914V16.1133C104.297 13.686 102.33 11.7188 99.9023 11.7188H90.5045C88.5864 4.96216 82.362 0 75 0C67.638 0 61.4136 4.96216 59.4955 11.7188H50.0977C47.6704 11.7188 45.7031 13.686 45.7031 16.1133V33.6914C45.7031 36.1187 47.6704 38.0859 50.0977 38.0859Z" fill="#416C6C"/>
</svg>
